<?xml version="1.0" encoding="UTF-8" standalone="no"?>
<!-- Created with Inkscape (http://www.inkscape.org/) -->
<svg xmlns:dc="http://purl.org/dc/elements/1.1/" xmlns:cc="http://creativecommons.org/ns#" xmlns:rdf="http://www.w3.org/1999/02/22-rdf-syntax-ns#" xmlns:svg="http://www.w3.org/2000/svg" xmlns="http://www.w3.org/2000/svg" xmlns:sodipodi="http://sodipodi.sourceforge.net/DTD/sodipodi-0.dtd" xmlns:inkscape="http://www.inkscape.org/namespaces/inkscape" width="342.89000pt" height="235.28000pt" id="svg2" sodipodi:version="0.32" inkscape:version="0.48.5 r10040" sodipodi:docname="Netz.svg" version="1.1">
  <defs id="defs4">
    <marker inkscape:stockid="Arrow2Send" orient="auto" refY="0.0" refX="0.0" id="Arrow2Send" style="overflow:visible;">
      <path sodipodi:nodetypes="cccc" id="path6809" style="font-size:12.0;fill-rule:evenodd;stroke-width:0.62500000;stroke-linejoin:round;" d="M 8.7185878,4.0337352 L -2.2072895,0.016013256 L 8.7185884,-4.0017078 C 6.9730900,-1.6296469 6.9831476,1.6157441 8.7185878,4.0337352 z " transform="scale(0.3) rotate(180) translate(-5,0)"/>
    </marker>
    <marker inkscape:stockid="Arrow2Lend" orient="auto" refY="0.0" refX="0.0" id="Arrow2Lend" style="overflow:visible;">
      <path sodipodi:nodetypes="cccc" id="path6815" style="font-size:12.0;fill-rule:evenodd;stroke-width:0.62500000;stroke-linejoin:round;" d="M 8.7185878,4.0337352 L -2.2072895,0.016013256 L 8.7185884,-4.0017078 C 6.9730900,-1.6296469 6.9831476,1.6157441 8.7185878,4.0337352 z " transform="scale(1.1) rotate(180) translate(-5,0)"/>
    </marker>
    <marker inkscape:stockid="Arrow2Mend" orient="auto" refY="0.0" refX="0.0" id="Arrow2Mend" style="overflow:visible;">
      <path sodipodi:nodetypes="cccc" id="path11243" style="font-size:12.0;fill-rule:evenodd;stroke-width:0.62500000;stroke-linejoin:round;" d="M 8.7185878,4.0337352 L -2.2072895,0.016013256 L 8.7185884,-4.0017078 C 6.9730900,-1.6296469 6.9831476,1.6157441 8.7185878,4.0337352 z " transform="scale(0.6) rotate(180) translate(-5,0)"/>
    </marker>
    <marker inkscape:stockid="Arrow1Mstart" orient="auto" refY="0.0" refX="0.0" id="Arrow1Mstart" style="overflow:visible">
      <path sodipodi:nodetypes="ccccc" id="path11251" d="M 0.0,0.0 L 5.0,-5.0 L -12.5,0.0 L 5.0,5.0 L 0.0,0.0 z " style="fill-rule:evenodd;stroke:#000000;stroke-width:1.0pt;marker-start:none" transform="scale(0.4)"/>
    </marker>
  </defs>
  <sodipodi:namedview id="base" pagecolor="#ffffff" bordercolor="#666666" borderopacity="1.0" inkscape:pageopacity="0.0" inkscape:pageshadow="2" inkscape:zoom="2.5468329" inkscape:cx="211.43582" inkscape:cy="141.73281" inkscape:document-units="px" inkscape:current-layer="layer1" showgrid="true" showguides="false" inkscape:window-width="1364" inkscape:window-height="719" inkscape:window-x="0" inkscape:window-y="0" showborder="false" inkscape:showpageshadow="false" inkscape:window-maximized="1"/>
  <metadata id="metadata7">
    <rdf:RDF>
      <cc:Work rdf:about="">
        <dc:format>image/svg+xml</dc:format>
        <dc:type rdf:resource="http://purl.org/dc/dcmitype/StillImage"/>
        <dc:title/>
        <dc:date>4.11.2005</dc:date>
        <dc:creator>
          <cc:Agent>
            <dc:title>S.Fischer</dc:title>
          </cc:Agent>
        </dc:creator>
        <dc:rights>
          <cc:Agent>
            <dc:title>GNU FDL</dc:title>
          </cc:Agent>
        </dc:rights>
      </cc:Work>
    </rdf:RDF>
  </metadata>
  <g inkscape:label="Ebene 1" inkscape:groupmode="layer" id="layer1">
    <path style="fill:none;fill-opacity:0.75000000;fill-rule:evenodd;stroke:#000000;stroke-width:0.88637453px;stroke-linecap:butt;stroke-linejoin:miter;stroke-opacity:1.0000000" d="M 91.444320,62.365732 L 391.56635,62.365732" id="path4435"/>
    <path style="fill:none;fill-opacity:0.75000000;fill-rule:evenodd;stroke:#000000;stroke-width:0.88645500px;stroke-linecap:butt;stroke-linejoin:miter;stroke-opacity:1.0000000" d="M 91.432550,99.740729 L 391.60908,99.740729" id="path4437"/>
    <path style="fill:none;fill-opacity:0.75000000;fill-rule:evenodd;stroke:#000000;stroke-width:0.88562071px;stroke-linecap:butt;stroke-linejoin:miter;stroke-opacity:1.0000000" d="M 90.998010,137.11573 L 390.60979,137.11573" id="path4439"/>
    <path style="fill:none;fill-opacity:0.75000000;fill-rule:evenodd;stroke:#000000;stroke-width:0.88645500px;stroke-linecap:butt;stroke-linejoin:miter;stroke-opacity:1.0000000" d="M 91.432550,174.49073 L 391.60908,174.49073" id="path4441"/>
    <path style="fill:none;fill-opacity:0.75000000;fill-rule:evenodd;stroke:#000000;stroke-width:0.88639045px;stroke-linecap:butt;stroke-linejoin:miter;stroke-opacity:1.0000000" d="M 91.432520,211.86573 L 391.56534,211.86573" id="path4443"/>
    <path style="fill:none;fill-opacity:0.75000000;fill-rule:evenodd;stroke:#000000;stroke-width:1.0000000px;stroke-linecap:butt;stroke-linejoin:miter;stroke-opacity:1.0000000" d="M 110.14386,47.865732 L 111.14386,231.44167" id="path4445"/>
    <path style="fill:none;fill-opacity:0.75000000;fill-rule:evenodd;stroke:#000000;stroke-width:1.0000000px;stroke-linecap:butt;stroke-linejoin:miter;stroke-opacity:1.0000000" d="M 154.01509,47.865732 L 155.01509,231.44167" id="path4447"/>
    <path style="fill:none;fill-opacity:0.75000000;fill-rule:evenodd;stroke:#000000;stroke-width:1.0000000px;stroke-linecap:butt;stroke-linejoin:miter;stroke-opacity:1.0000000" d="M 241.75753,47.865732 L 242.75753,231.44167" id="path4449"/>
    <path style="fill:none;fill-opacity:0.75000000;fill-rule:evenodd;stroke:#000000;stroke-width:1.0000000px;stroke-linecap:butt;stroke-linejoin:miter;stroke-opacity:1.0000000" d="M 197.88631,47.865732 L 198.88631,231.44167" id="path4451"/>
    <path style="fill:none;fill-opacity:0.75000000;fill-rule:evenodd;stroke:#000000;stroke-width:1.0000000px;stroke-linecap:butt;stroke-linejoin:miter;stroke-opacity:1.0000000" d="M 285.62878,47.865732 L 286.62878,231.44167" id="path4453"/>
    <path style="fill:none;fill-opacity:0.75000000;fill-rule:evenodd;stroke:#000000;stroke-width:1.0000000px;stroke-linecap:butt;stroke-linejoin:miter;stroke-opacity:1.0000000" d="M 329.50000,47.865732 L 330.50000,231.44167" id="path4455"/>
    <path style="fill:none;fill-opacity:0.75000000;fill-rule:evenodd;stroke:#000000;stroke-width:1.0000000px;stroke-linecap:butt;stroke-linejoin:miter;stroke-opacity:1.0000000" d="M 373.37122,47.865732 L 374.37122,231.44167" id="path4457"/>
    <path sodipodi:type="arc" style="opacity:1.0000000;fill:#b71919;fill-opacity:0.91176468;stroke:#000000;stroke-opacity:1.0000000" id="path5915" sodipodi:cx="167.58430" sodipodi:cy="25.643137" sodipodi:rx="4.2426405" sodipodi:ry="4.2426405" d="M 171.82695 25.643137 A 4.2426405 4.2426405 0 1 1  163.34166,25.643137 A 4.2426405 4.2426405 0 1 1  171.82695 25.643137 z" transform="translate(-57.43503,36.71423)"/>
    <path sodipodi:type="arc" style="opacity:1.0000000;fill:#b71919;fill-opacity:0.91176468;stroke:#000000;stroke-opacity:1.0000000" id="path5917" sodipodi:cx="167.58430" sodipodi:cy="25.643137" sodipodi:rx="4.2426405" sodipodi:ry="4.2426405" d="M 171.82695 25.643137 A 4.2426405 4.2426405 0 1 1  163.34166,25.643137 A 4.2426405 4.2426405 0 1 1  171.82695 25.643137 z" transform="translate(-13.32695,36.46524)"/>
    <path sodipodi:type="arc" style="opacity:1.0000000;fill:#b71919;fill-opacity:0.91176468;stroke:#000000;stroke-opacity:1.0000000" id="path5919" sodipodi:cx="167.58430" sodipodi:cy="25.643137" sodipodi:rx="4.2426405" sodipodi:ry="4.2426405" d="M 171.82695 25.643137 A 4.2426405 4.2426405 0 1 1  163.34166,25.643137 A 4.2426405 4.2426405 0 1 1  171.82695 25.643137 z" transform="translate(30.15834,36.97996)"/>
    <path sodipodi:type="arc" style="opacity:1.0000000;fill:#b71919;fill-opacity:0.91176468;stroke:#000000;stroke-opacity:1.0000000" id="path5921" sodipodi:cx="167.58430" sodipodi:cy="25.643137" sodipodi:rx="4.2426405" sodipodi:ry="4.2426405" d="M 171.82695 25.643137 A 4.2426405 4.2426405 0 1 1  163.34166,25.643137 A 4.2426405 4.2426405 0 1 1  171.82695 25.643137 z" transform="translate(74.15830,36.46524)"/>
    <path sodipodi:type="arc" style="opacity:1.0000000;fill:#b71919;fill-opacity:0.91176468;stroke:#000000;stroke-opacity:1.0000000" id="path5923" sodipodi:cx="167.58430" sodipodi:cy="25.643137" sodipodi:rx="4.2426405" sodipodi:ry="4.2426405" d="M 171.82695 25.643137 A 4.2426405 4.2426405 0 1 1  163.34166,25.643137 A 4.2426405 4.2426405 0 1 1  171.82695 25.643137 z" transform="translate(118.1583,35.97996)"/>
    <path sodipodi:type="arc" style="opacity:1.0000000;fill:#b71919;fill-opacity:0.91176468;stroke:#000000;stroke-opacity:1.0000000" id="path5925" sodipodi:cx="167.58430" sodipodi:cy="25.643137" sodipodi:rx="4.2426405" sodipodi:ry="4.2426405" d="M 171.82695 25.643137 A 4.2426405 4.2426405 0 1 1  163.34166,25.643137 A 4.2426405 4.2426405 0 1 1  171.82695 25.643137 z" transform="translate(161.7681,36.71423)"/>
    <path sodipodi:type="arc" style="opacity:1.0000000;fill:#b71919;fill-opacity:0.91176468;stroke:#000000;stroke-opacity:1.0000000" id="path5927" sodipodi:cx="167.58430" sodipodi:cy="25.643137" sodipodi:rx="4.2426405" sodipodi:ry="4.2426405" d="M 171.82695 25.643137 A 4.2426405 4.2426405 0 1 1  163.34166,25.643137 A 4.2426405 4.2426405 0 1 1  171.82695 25.643137 z" transform="translate(205.6087,36.71423)"/>
    <path sodipodi:type="arc" style="opacity:1.0000000;fill:#b71919;fill-opacity:0.91176468;stroke:#000000;stroke-opacity:1.0000000" id="path5933" sodipodi:cx="167.58430" sodipodi:cy="25.643137" sodipodi:rx="4.2426405" sodipodi:ry="4.2426405" d="M 171.82695 25.643137 A 4.2426405 4.2426405 0 1 1  163.34166,25.643137 A 4.2426405 4.2426405 0 1 1  171.82695 25.643137 z" transform="translate(206.1583,74.46525)"/>
    <path sodipodi:type="arc" style="opacity:1.0000000;fill:#b71919;fill-opacity:0.91176468;stroke:#000000;stroke-opacity:1.0000000" id="path5935" sodipodi:cx="167.58430" sodipodi:cy="25.643137" sodipodi:rx="4.2426405" sodipodi:ry="4.2426405" d="M 171.82695 25.643137 A 4.2426405 4.2426405 0 1 1  163.34166,25.643137 A 4.2426405 4.2426405 0 1 1  171.82695 25.643137 z" transform="translate(162.6731,73.97995)"/>
    <path sodipodi:type="arc" style="opacity:1.0000000;fill:#b71919;fill-opacity:0.91176468;stroke:#000000;stroke-opacity:1.0000000" id="path5937" sodipodi:cx="167.58430" sodipodi:cy="25.643137" sodipodi:rx="4.2426405" sodipodi:ry="4.2426405" d="M 171.82695 25.643137 A 4.2426405 4.2426405 0 1 1  163.34166,25.643137 A 4.2426405 4.2426405 0 1 1  171.82695 25.643137 z" transform="translate(118.1583,73.97995)"/>
    <path sodipodi:type="arc" style="opacity:1.0000000;fill:#b71919;fill-opacity:0.91176468;stroke:#000000;stroke-opacity:1.0000000" id="path5939" sodipodi:cx="167.58430" sodipodi:cy="25.643137" sodipodi:rx="4.2426405" sodipodi:ry="4.2426405" d="M 171.82695 25.643137 A 4.2426405 4.2426405 0 1 1  163.34166,25.643137 A 4.2426405 4.2426405 0 1 1  171.82695 25.643137 z" transform="translate(74.15830,73.46525)"/>
    <path sodipodi:type="arc" style="opacity:1.0000000;fill:#b71919;fill-opacity:0.91176468;stroke:#000000;stroke-opacity:1.0000000" id="path5941" sodipodi:cx="167.58430" sodipodi:cy="25.643137" sodipodi:rx="4.2426405" sodipodi:ry="4.2426405" d="M 171.82695 25.643137 A 4.2426405 4.2426405 0 1 1  163.34166,25.643137 A 4.2426405 4.2426405 0 1 1  171.82695 25.643137 z" transform="translate(30.15834,73.97995)"/>
    <path sodipodi:type="arc" style="opacity:1.0000000;fill:#b71919;fill-opacity:0.91176468;stroke:#000000;stroke-opacity:1.0000000" id="path5943" sodipodi:cx="167.58430" sodipodi:cy="25.643137" sodipodi:rx="4.2426405" sodipodi:ry="4.2426405" d="M 171.82695 25.643137 A 4.2426405 4.2426405 0 1 1  163.34166,25.643137 A 4.2426405 4.2426405 0 1 1  171.82695 25.643137 z" transform="translate(-13.32695,73.97995)"/>
    <path sodipodi:type="arc" style="opacity:1.0000000;fill:#b71919;fill-opacity:0.91176468;stroke:#000000;stroke-opacity:1.0000000" id="path5945" sodipodi:cx="167.58430" sodipodi:cy="25.643137" sodipodi:rx="4.2426405" sodipodi:ry="4.2426405" d="M 171.82695 25.643137 A 4.2426405 4.2426405 0 1 1  163.34166,25.643137 A 4.2426405 4.2426405 0 1 1  171.82695 25.643137 z" transform="translate(-57.32695,73.97995)"/>
    <path sodipodi:type="arc" style="opacity:1.0000000;fill:#b71919;fill-opacity:0.91176468;stroke:#000000;stroke-opacity:1.0000000" id="path5947" sodipodi:cx="167.58430" sodipodi:cy="25.643137" sodipodi:rx="4.2426405" sodipodi:ry="4.2426405" d="M 171.82695 25.643137 A 4.2426405 4.2426405 0 1 1  163.34166,25.643137 A 4.2426405 4.2426405 0 1 1  171.82695 25.643137 z" transform="translate(-56.84166,111.4652)"/>
    <path sodipodi:type="arc" style="opacity:1.0000000;fill:#b71919;fill-opacity:0.91176468;stroke:#000000;stroke-opacity:1.0000000" id="path5949" sodipodi:cx="167.58430" sodipodi:cy="25.643137" sodipodi:rx="4.2426405" sodipodi:ry="4.2426405" d="M 171.82695 25.643137 A 4.2426405 4.2426405 0 1 1  163.34166,25.643137 A 4.2426405 4.2426405 0 1 1  171.82695 25.643137 z" transform="translate(-13.32695,111.4652)"/>
    <path sodipodi:type="arc" style="opacity:1.0000000;fill:#b71919;fill-opacity:0.91176468;stroke:#000000;stroke-opacity:1.0000000" id="path5951" sodipodi:cx="167.58430" sodipodi:cy="25.643137" sodipodi:rx="4.2426405" sodipodi:ry="4.2426405" d="M 171.82695 25.643137 A 4.2426405 4.2426405 0 1 1  163.34166,25.643137 A 4.2426405 4.2426405 0 1 1  171.82695 25.643137 z" transform="translate(30.15834,111.4652)"/>
    <path sodipodi:type="arc" style="opacity:1.0000000;fill:#b71919;fill-opacity:0.91176468;stroke:#000000;stroke-opacity:1.0000000" id="path5953" sodipodi:cx="167.58430" sodipodi:cy="25.643137" sodipodi:rx="4.2426405" sodipodi:ry="4.2426405" d="M 171.82695 25.643137 A 4.2426405 4.2426405 0 1 1  163.34166,25.643137 A 4.2426405 4.2426405 0 1 1  171.82695 25.643137 z" transform="translate(74.15830,111.4652)"/>
    <path sodipodi:type="arc" style="opacity:1.0000000;fill:#b71919;fill-opacity:0.91176468;stroke:#000000;stroke-opacity:1.0000000" id="path5955" sodipodi:cx="167.58430" sodipodi:cy="25.643137" sodipodi:rx="4.2426405" sodipodi:ry="4.2426405" d="M 171.82695 25.643137 A 4.2426405 4.2426405 0 1 1  163.34166,25.643137 A 4.2426405 4.2426405 0 1 1  171.82695 25.643137 z" transform="translate(118.6731,112.4652)"/>
    <path sodipodi:type="arc" style="opacity:1.0000000;fill:#b71919;fill-opacity:0.91176468;stroke:#000000;stroke-opacity:1.0000000" id="path5957" sodipodi:cx="167.58430" sodipodi:cy="25.643137" sodipodi:rx="4.2426405" sodipodi:ry="4.2426405" d="M 171.82695 25.643137 A 4.2426405 4.2426405 0 1 1  163.34166,25.643137 A 4.2426405 4.2426405 0 1 1  171.82695 25.643137 z" transform="translate(161.6731,111.4652)"/>
    <path sodipodi:type="arc" style="opacity:1.0000000;fill:#b71919;fill-opacity:0.91176468;stroke:#000000;stroke-opacity:1.0000000" id="path5959" sodipodi:cx="167.58430" sodipodi:cy="25.643137" sodipodi:rx="4.2426405" sodipodi:ry="4.2426405" d="M 171.82695 25.643137 A 4.2426405 4.2426405 0 1 1  163.34166,25.643137 A 4.2426405 4.2426405 0 1 1  171.82695 25.643137 z" transform="translate(205.1583,111.4652)"/>
    <path sodipodi:type="arc" style="opacity:1.0000000;fill:#b71919;fill-opacity:0.91176468;stroke:#000000;stroke-opacity:1.0000000" id="path5965" sodipodi:cx="167.58430" sodipodi:cy="25.643137" sodipodi:rx="4.2426405" sodipodi:ry="4.2426405" d="M 171.82695 25.643137 A 4.2426405 4.2426405 0 1 1  163.34166,25.643137 A 4.2426405 4.2426405 0 1 1  171.82695 25.643137 z" transform="translate(206.1583,148.9799)"/>
    <path sodipodi:type="arc" style="opacity:1.0000000;fill:#b71919;fill-opacity:0.91176468;stroke:#000000;stroke-opacity:1.0000000" id="path5967" sodipodi:cx="167.58430" sodipodi:cy="25.643137" sodipodi:rx="4.2426405" sodipodi:ry="4.2426405" d="M 171.82695 25.643137 A 4.2426405 4.2426405 0 1 1  163.34166,25.643137 A 4.2426405 4.2426405 0 1 1  171.82695 25.643137 z" transform="translate(162.4752,149.1442)"/>
    <path sodipodi:type="arc" style="opacity:1.0000000;fill:#b71919;fill-opacity:0.91176468;stroke:#000000;stroke-opacity:1.0000000" id="path5969" sodipodi:cx="167.58430" sodipodi:cy="25.643137" sodipodi:rx="4.2426405" sodipodi:ry="4.2426405" d="M 171.82695 25.643137 A 4.2426405 4.2426405 0 1 1  163.34166,25.643137 A 4.2426405 4.2426405 0 1 1  171.82695 25.643137 z" transform="translate(118.6731,148.4652)"/>
    <path sodipodi:type="arc" style="opacity:1.0000000;fill:#b71919;fill-opacity:0.91176468;stroke:#000000;stroke-opacity:1.0000000" id="path5971" sodipodi:cx="167.58430" sodipodi:cy="25.643137" sodipodi:rx="4.2426405" sodipodi:ry="4.2426405" d="M 171.82695 25.643137 A 4.2426405 4.2426405 0 1 1  163.34166,25.643137 A 4.2426405 4.2426405 0 1 1  171.82695 25.643137 z" transform="translate(74.67310,148.4652)"/>
    <path sodipodi:type="arc" style="opacity:1.0000000;fill:#b71919;fill-opacity:0.91176468;stroke:#000000;stroke-opacity:1.0000000" id="path5973" sodipodi:cx="167.58430" sodipodi:cy="25.643137" sodipodi:rx="4.2426405" sodipodi:ry="4.2426405" d="M 171.82695 25.643137 A 4.2426405 4.2426405 0 1 1  163.34166,25.643137 A 4.2426405 4.2426405 0 1 1  171.82695 25.643137 z" transform="translate(31.15834,148.9799)"/>
    <path sodipodi:type="arc" style="opacity:1.0000000;fill:#b71919;fill-opacity:0.91176468;stroke:#000000;stroke-opacity:1.0000000" id="path5975" sodipodi:cx="167.58430" sodipodi:cy="25.643137" sodipodi:rx="4.2426405" sodipodi:ry="4.2426405" d="M 171.82695 25.643137 A 4.2426405 4.2426405 0 1 1  163.34166,25.643137 A 4.2426405 4.2426405 0 1 1  171.82695 25.643137 z" transform="translate(-13.59441,149.1442)"/>
    <path sodipodi:type="arc" style="opacity:1.0000000;fill:#b71919;fill-opacity:0.91176468;stroke:#000000;stroke-opacity:1.0000000" id="path5977" sodipodi:cx="167.58430" sodipodi:cy="25.643137" sodipodi:rx="4.2426405" sodipodi:ry="4.2426405" d="M 171.82695 25.643137 A 4.2426405 4.2426405 0 1 1  163.34166,25.643137 A 4.2426405 4.2426405 0 1 1  171.82695 25.643137 z" transform="translate(-57.43503,148.4370)"/>
    <path sodipodi:type="arc" style="opacity:1.0000000;fill:#b71919;fill-opacity:0.91176468;stroke:#000000;stroke-opacity:1.0000000" id="path5979" sodipodi:cx="167.58430" sodipodi:cy="25.643137" sodipodi:rx="4.2426405" sodipodi:ry="4.2426405" d="M 171.82695 25.643137 A 4.2426405 4.2426405 0 1 1  163.34166,25.643137 A 4.2426405 4.2426405 0 1 1  171.82695 25.643137 z" transform="translate(-56.72792,185.9137)"/>
    <path sodipodi:type="arc" style="opacity:1.0000000;fill:#b71919;fill-opacity:0.91176468;stroke:#000000;stroke-opacity:1.0000000" id="path5981" sodipodi:cx="167.58430" sodipodi:cy="25.643137" sodipodi:rx="4.2426405" sodipodi:ry="4.2426405" d="M 171.82695 25.643137 A 4.2426405 4.2426405 0 1 1  163.34166,25.643137 A 4.2426405 4.2426405 0 1 1  171.82695 25.643137 z" transform="translate(-12.88730,186.6208)"/>
    <path sodipodi:type="arc" style="opacity:1.0000000;fill:#b71919;fill-opacity:0.91176468;stroke:#000000;stroke-opacity:1.0000000" id="path5983" sodipodi:cx="167.58430" sodipodi:cy="25.643137" sodipodi:rx="4.2426405" sodipodi:ry="4.2426405" d="M 171.82695 25.643137 A 4.2426405 4.2426405 0 1 1  163.34166,25.643137 A 4.2426405 4.2426405 0 1 1  171.82695 25.643137 z" transform="translate(30.95332,185.9137)"/>
    <path sodipodi:type="arc" style="opacity:1.0000000;fill:#b71919;fill-opacity:0.91176468;stroke:#000000;stroke-opacity:1.0000000" id="path5985" sodipodi:cx="167.58430" sodipodi:cy="25.643137" sodipodi:rx="4.2426405" sodipodi:ry="4.2426405" d="M 171.82695 25.643137 A 4.2426405 4.2426405 0 1 1  163.34166,25.643137 A 4.2426405 4.2426405 0 1 1  171.82695 25.643137 z" transform="translate(74.79390,185.9137)"/>
    <path sodipodi:type="arc" style="opacity:1.0000000;fill:#b71919;fill-opacity:0.91176468;stroke:#000000;stroke-opacity:1.0000000" id="path5987" sodipodi:cx="167.58430" sodipodi:cy="25.643137" sodipodi:rx="4.2426405" sodipodi:ry="4.2426405" d="M 171.82695 25.643137 A 4.2426405 4.2426405 0 1 1  163.34166,25.643137 A 4.2426405 4.2426405 0 1 1  171.82695 25.643137 z" transform="matrix(1.000000,0.000000,0.000000,-1.000000,118.6731,237.7515)"/>
    <path sodipodi:type="arc" style="opacity:1.0000000;fill:#b71919;fill-opacity:0.91176468;stroke:#000000;stroke-opacity:1.0000000" id="path5989" sodipodi:cx="167.58430" sodipodi:cy="25.643137" sodipodi:rx="4.2426405" sodipodi:ry="4.2426405" d="M 171.82695 25.643137 A 4.2426405 4.2426405 0 1 1  163.34166,25.643137 A 4.2426405 4.2426405 0 1 1  171.82695 25.643137 z" transform="translate(162.1583,186.4652)"/>
    <path sodipodi:type="arc" style="opacity:1.0000000;fill:#b71919;fill-opacity:0.91176468;stroke:#000000;stroke-opacity:1.0000000" id="path5991" sodipodi:cx="167.58430" sodipodi:cy="25.643137" sodipodi:rx="4.2426405" sodipodi:ry="4.2426405" d="M 171.82695 25.643137 A 4.2426405 4.2426405 0 1 1  163.34166,25.643137 A 4.2426405 4.2426405 0 1 1  171.82695 25.643137 z" transform="translate(206.6731,185.9799)"/>
    <rect style="opacity:0.66791046;fill:#0000ce;fill-opacity:0.23985238;stroke:#00006f;stroke-width:1.7000000;stroke-linecap:square;stroke-linejoin:miter;stroke-miterlimit:4.0000000;stroke-dasharray:1.7000000 3.4000000 ;stroke-dashoffset:0.0000000;stroke-opacity:1.0000000" id="rect6013" width="72.000000" height="69.000000" x="97.500000" y="82.865730" ry="16.000000" rx="16.000000"/>
    <text xml:space="preserve" style="font-size:12.000000px;font-style:normal;font-weight:normal;line-height:125.00000%;fill:#000000;fill-opacity:1.0000000;stroke:none;stroke-width:1.0000000px;stroke-linecap:butt;stroke-linejoin:miter;stroke-opacity:1.0000000;font-family:Bitstream Vera Sans" x="29.052734" y="171.48293" id="text10391" sodipodi:linespacing="125%"><tspan sodipodi:role="line" x="29.052734" y="171.48293" id="tspan10395" style="font-size:18.000000px;font-style:normal;font-variant:normal;font-weight:normal;font-stretch:normal;text-align:start;line-height:125.00000%;writing-mode:lr-tb;text-anchor:start;font-family:Bitstream Vera Sans">Masche</tspan></text>
    <text xml:space="preserve" style="font-size:12.000000px;font-style:normal;font-weight:normal;line-height:125.00000%;fill:#000000;fill-opacity:1.0000000;stroke:none;stroke-width:1.0000000px;stroke-linecap:butt;stroke-linejoin:miter;stroke-opacity:1.0000000;font-family:Bitstream Vera Sans" x="135.82227" y="257.11377" id="text10397" sodipodi:linespacing="125%"><tspan sodipodi:role="line" id="tspan10399" x="135.82227" y="257.11377" style="font-size:18.000000px;font-style:normal;font-variant:normal;font-weight:normal;font-stretch:normal;text-align:start;line-height:125.00000%;writing-mode:lr-tb;text-anchor:start;font-family:Bitstream Vera Sans">Knoten</tspan></text>
    <text xml:space="preserve" style="font-size:12.000000px;font-style:normal;font-weight:normal;line-height:125.00000%;fill:#000000;fill-opacity:1.0000000;stroke:none;stroke-width:1.0000000px;stroke-linecap:butt;stroke-linejoin:miter;stroke-opacity:1.0000000;font-family:Bitstream Vera Sans" x="238.2334" y="257.11377" id="text10401" sodipodi:linespacing="125%"><tspan sodipodi:role="line" id="tspan10403" x="238.23340" y="257.11377" style="font-size:18.000000px;font-style:normal;font-variant:normal;font-weight:normal;font-stretch:normal;text-align:start;line-height:125.00000%;writing-mode:lr-tb;text-anchor:start;font-family:Bitstream Vera Sans">Kante</tspan></text>
    <g id="g3136">
      <path style="font-size:medium;font-style:normal;font-variant:normal;font-weight:normal;font-stretch:normal;text-indent:0;text-align:start;text-decoration:none;line-height:normal;letter-spacing:normal;word-spacing:normal;text-transform:none;direction:ltr;block-progression:tb;writing-mode:lr-tb;text-anchor:start;baseline-shift:baseline;color:#000000;fill:#55559f;fill-opacity:1;fill-rule:evenodd;stroke:none;stroke-width:2.5;marker:none;visibility:visible;display:inline;overflow:visible;enable-background:accumulate;font-family:Sans;-inkscape-font-specification:Sans" d="m 82.3125,129.28125 -25,22 1.65625,1.875 25,-22 -1.65625,-1.875 z" id="path10405" inkscape:connector-curvature="0"/>
      <path d="m 74.965412,129.35836 16.284634,-6.30267 -8.321978,15.35115 c -0.385021,-4.4008 -3.61234,-8.04537 -7.962656,-9.04848 z" style="font-size:12px;fill-rule:evenodd;stroke-width:0.625;stroke-linejoin:round" id="path3142" sodipodi:nodetypes="cccc" inkscape:connector-curvature="0"/>
    </g>
    <g id="g3144">
      <path style="font-size:medium;font-style:normal;font-variant:normal;font-weight:normal;font-stretch:normal;text-indent:0;text-align:start;text-decoration:none;line-height:normal;letter-spacing:normal;word-spacing:normal;text-transform:none;direction:ltr;block-progression:tb;writing-mode:lr-tb;text-anchor:start;baseline-shift:baseline;color:#000000;fill:#ac1c1c;fill-opacity:1;fill-rule:evenodd;stroke:none;stroke-width:2.29858017;marker:none;visibility:visible;display:inline;overflow:visible;enable-background:accumulate;font-family:Sans;-inkscape-font-specification:Sans" d="m 188.84375,187.90625 -28.5,49 2,1.15625 28.5,-49 -2,-1.15625 z" id="path12038" inkscape:connector-curvature="0"/>
      <path d="m 182.44784,190.13624 12.36509,-10.24034 -2.78518,15.81147 c -1.6178,-3.72559 -5.49395,-5.9637 -9.57991,-5.57113 z" style="font-size:12px;fill-rule:evenodd;stroke-width:0.625;stroke-linejoin:round" id="path3150" sodipodi:nodetypes="cccc" inkscape:connector-curvature="0"/>
    </g>
    <g id="g3152">
      <path style="font-size:medium;font-style:normal;font-variant:normal;font-weight:normal;font-stretch:normal;text-indent:0;text-align:start;text-decoration:none;line-height:normal;letter-spacing:normal;word-spacing:normal;text-transform:none;direction:ltr;block-progression:tb;writing-mode:lr-tb;text-anchor:start;baseline-shift:baseline;color:#000000;fill:#000000;fill-opacity:1;stroke:none;stroke-width:2.4863553;marker:none;visibility:visible;display:inline;overflow:visible;enable-background:accumulate;font-family:Sans;-inkscape-font-specification:Sans" d="m 301.1875,218.5 -38,20.25 0.75,2.34375 L 363.5,228.75 363.1875,226.28125 270.25,237.8125 302.375,220.71875 301.1875,218.5 z" id="path13554" inkscape:connector-curvature="0"/>
      <path style="fill-rule:evenodd;stroke:#000000;stroke-width:0.99454212pt;marker-start:none" d="m 301.78631,219.60891 -2.05187,6.72648 13.02481,-12.56974 -17.69942,3.79139 6.72648,2.05187 z" id="path3158" sodipodi:nodetypes="ccccc" inkscape:connector-curvature="0"/>
      <path d="m 357.09652,222.2316 16.9124,3.94516 -15.43922,7.95136 c 2.14933,-3.83186 1.53945,-8.63484 -1.47318,-11.89652 z" style="font-size:12px;fill-rule:evenodd;stroke-width:0.625;stroke-linejoin:round" id="path3160" sodipodi:nodetypes="cccc" inkscape:connector-curvature="0"/>
    </g>
  </g>
</svg>